<?xml version="1.0" standalone="no"?>
<!DOCTYPE svg PUBLIC "-//W3C//DTD SVG 20010904//EN"
 "http://www.w3.org/TR/2001/REC-SVG-20010904/DTD/svg10.dtd">
<svg version="1.0" xmlns="http://www.w3.org/2000/svg"
 width="195.000000pt" height="55.000000pt" viewBox="0 0 195.000000 55.000000"
 preserveAspectRatio="xMidYMid meet">
<metadata>
Created by potrace 1.13, written by Peter Selinger 2001-2015
</metadata>
<g transform="translate(0.000000,55.000000) scale(0.100000,-0.100000)"
fill="#000000" stroke="none">
<path d="M0 280 l0 -270 975 0 975 0 0 270 0 270 -975 0 -975 0 0 -270z m690
78 c18 -46 39 -98 47 -115 13 -32 12 -33 -10 -33 -16 0 -28 9 -35 25 -10 22
-18 25 -62 25 -45 0 -52 -3 -60 -25 -9 -23 -50 -37 -50 -18 0 4 19 56 43 115
38 98 44 108 68 108 22 0 29 -9 59 -82z m228 66 c12 -8 22 -22 22 -30 0 -19
-34 -18 -50 1 -22 27 -89 13 -78 -17 3 -7 29 -20 57 -27 54 -14 81 -40 81 -77
0 -60 -117 -88 -165 -39 -29 28 -31 43 -9 52 10 4 23 -2 33 -14 21 -27 48 -35
72 -23 35 19 24 48 -23 60 -63 17 -88 36 -88 67 0 42 26 63 79 63 26 0 56 -7
69 -16z m223 -2 c15 -13 22 -30 22 -52 0 -45 -32 -70 -89 -70 l-44 0 0 -45 c0
-38 -3 -45 -20 -45 -19 0 -20 7 -20 115 l0 115 64 0 c47 0 70 -5 87 -18z m234
2 c31 -20 50 -80 41 -127 -15 -81 -120 -116 -184 -62 -52 44 -55 130 -5 179
21 21 35 26 75 26 28 0 59 -7 73 -16z m227 -1 c10 -9 18 -22 18 -30 0 -18 -35
-17 -50 2 -15 18 -51 20 -68 3 -20 -20 -14 -27 40 -43 63 -18 88 -40 88 -76 0
-80 -163 -96 -183 -19 -8 30 21 39 42 13 23 -29 50 -36 77 -18 34 22 20 42
-42 60 -109 31 -98 125 15 125 27 0 51 -6 63 -17z m238 -3 c0 -18 -7 -20 -65
-20 -63 0 -65 -1 -65 -25 0 -24 3 -25 60 -25 53 0 60 -2 60 -20 0 -18 -7 -20
-60 -20 -60 0 -60 0 -60 -30 0 -29 0 -29 68 -32 52 -2 67 -6 67 -18 0 -12 -18
-16 -87 -18 l-88 -3 0 116 0 115 85 0 c78 0 85 -2 85 -20z"/>
<path d="M1280 403 c-43 -16 -56 -105 -20 -138 47 -43 110 -9 110 60 0 22 -6
49 -12 58 -14 18 -55 29 -78 20z"/>
</g>
</svg>
