<?xml version="1.0" encoding="UTF-8"?>
<!DOCTYPE svg PUBLIC "-//W3C//DTD SVG 1.1//EN" "http://www.w3.org/Graphics/SVG/1.1/DTD/svg11.dtd">
<!-- Creator: CorelDRAW X7 -->
<svg xmlns="http://www.w3.org/2000/svg" xml:space="preserve" width="210mm" height="297mm" version="1.1" style="shape-rendering:geometricPrecision; text-rendering:geometricPrecision; image-rendering:optimizeQuality; fill-rule:evenodd; clip-rule:evenodd"
viewBox="0 0 21000 29700"
 xmlns:xlink="http://www.w3.org/1999/xlink">
 <defs>
  <style type="text/css">
   <![CDATA[
    .str0 {stroke:#2B2A29;stroke-width:100}
    .fil0 {fill:none}
   ]]>
  </style>
 </defs>
 <g id="Слой_x0020_1">
  <metadata id="CorelCorpID_0Corel-Layer"/>
  <path class="fil0 str0" d="M1435 2786c1497,2106 -414,3956 3759,4089 927,30 718,-5138 2243,-4226 2002,1198 768,1577 768,3317 0,2468 3242,1633 1875,-1681 -84,-205 33,-944 136,-1132 452,-52 548,-346 1496,45 2564,1060 -155,1180 -12,3484 27,428 3449,1593 2557,-2083 -93,-383 -2329,-3270 1742,-1636 1493,600 -257,1437 238,2780 112,306 564,1720 871,1549l94 -8"/>
 </g>
</svg>
