<?xml version="1.0" standalone="no"?>
<!DOCTYPE svg PUBLIC "-//W3C//DTD SVG 20010904//EN"
 "http://www.w3.org/TR/2001/REC-SVG-20010904/DTD/svg10.dtd">
<svg version="1.0" xmlns="http://www.w3.org/2000/svg"
 width="200.000000pt" height="200.000000pt" viewBox="0 0 200.000000 200.000000"
 preserveAspectRatio="xMidYMid meet">
<metadata>
Created by potrace 1.15, written by Peter Selinger 2001-2017
</metadata>
<g transform="translate(0.000000,200.000000) scale(0.100000,-0.100000)"
fill="#000000" stroke="none">
<path d="M0 1000 l0 -1000 1000 0 1000 0 0 1000 0 1000 -1000 0 -1000 0 0
-1000z m1190 815 c153 -37 337 -154 438 -278 372 -459 175 -1137 -384 -1326
-261 -87 -551 -33 -771 145 -135 109 -227 247 -279 419 -24 80 -27 106 -27
230 0 124 3 150 27 230 71 233 217 408 432 516 136 68 241 91 389 84 61 -2
139 -11 175 -20z"/>
</g>
</svg>
